<mxfile host="app.diagrams.net" modified="2021-04-25T11:24:21.824Z" agent="5.0 (Windows NT 10.0; Win64; x64) AppleWebKit/537.36 (KHTML, like Gecko) Chrome/90.0.4430.85 Safari/537.36" etag="4m53_PHqmdrUROpUe3-g" version="14.6.6" type="github">
  <diagram id="DfqwE3UK5f0tMCOXAiVE" name="Page-1">
    <mxGraphModel dx="716" dy="403" grid="1" gridSize="10" guides="1" tooltips="1" connect="1" arrows="1" fold="1" page="1" pageScale="1" pageWidth="827" pageHeight="1169" math="0" shadow="0">
      <root>
        <mxCell id="0" />
        <mxCell id="1" parent="0" />
        <mxCell id="ZjOZpIO9wMrcneZdlFCF-50" style="edgeStyle=orthogonalEdgeStyle;rounded=0;orthogonalLoop=1;jettySize=auto;html=1;exitX=0.5;exitY=0;exitDx=0;exitDy=0;entryX=0.5;entryY=1;entryDx=0;entryDy=0;" edge="1" parent="1" source="ZjOZpIO9wMrcneZdlFCF-1" target="ZjOZpIO9wMrcneZdlFCF-45">
          <mxGeometry relative="1" as="geometry" />
        </mxCell>
        <mxCell id="ZjOZpIO9wMrcneZdlFCF-51" style="edgeStyle=orthogonalEdgeStyle;rounded=0;orthogonalLoop=1;jettySize=auto;html=1;exitX=0.5;exitY=0;exitDx=0;exitDy=0;entryX=0.5;entryY=1;entryDx=0;entryDy=0;" edge="1" parent="1" source="ZjOZpIO9wMrcneZdlFCF-1" target="ZjOZpIO9wMrcneZdlFCF-46">
          <mxGeometry relative="1" as="geometry" />
        </mxCell>
        <mxCell id="ZjOZpIO9wMrcneZdlFCF-52" style="edgeStyle=orthogonalEdgeStyle;rounded=0;orthogonalLoop=1;jettySize=auto;html=1;exitX=0.5;exitY=0;exitDx=0;exitDy=0;entryX=0.5;entryY=1;entryDx=0;entryDy=0;" edge="1" parent="1" source="ZjOZpIO9wMrcneZdlFCF-1" target="ZjOZpIO9wMrcneZdlFCF-47">
          <mxGeometry relative="1" as="geometry" />
        </mxCell>
        <mxCell id="ZjOZpIO9wMrcneZdlFCF-53" style="edgeStyle=orthogonalEdgeStyle;rounded=0;orthogonalLoop=1;jettySize=auto;html=1;exitX=0.5;exitY=0;exitDx=0;exitDy=0;entryX=0.414;entryY=1.097;entryDx=0;entryDy=0;entryPerimeter=0;" edge="1" parent="1" source="ZjOZpIO9wMrcneZdlFCF-1" target="ZjOZpIO9wMrcneZdlFCF-48">
          <mxGeometry relative="1" as="geometry" />
        </mxCell>
        <mxCell id="ZjOZpIO9wMrcneZdlFCF-66" style="edgeStyle=orthogonalEdgeStyle;rounded=0;orthogonalLoop=1;jettySize=auto;html=1;exitX=0.5;exitY=0;exitDx=0;exitDy=0;entryX=0.5;entryY=1;entryDx=0;entryDy=0;" edge="1" parent="1" source="ZjOZpIO9wMrcneZdlFCF-1" target="ZjOZpIO9wMrcneZdlFCF-65">
          <mxGeometry relative="1" as="geometry" />
        </mxCell>
        <mxCell id="ZjOZpIO9wMrcneZdlFCF-68" style="edgeStyle=orthogonalEdgeStyle;rounded=0;orthogonalLoop=1;jettySize=auto;html=1;exitX=0.5;exitY=0;exitDx=0;exitDy=0;" edge="1" parent="1" source="ZjOZpIO9wMrcneZdlFCF-1" target="ZjOZpIO9wMrcneZdlFCF-67">
          <mxGeometry relative="1" as="geometry" />
        </mxCell>
        <mxCell id="ZjOZpIO9wMrcneZdlFCF-1" value="회원" style="rounded=0;whiteSpace=wrap;html=1;" vertex="1" parent="1">
          <mxGeometry x="400" y="240" width="80" height="40" as="geometry" />
        </mxCell>
        <mxCell id="ZjOZpIO9wMrcneZdlFCF-8" value="질문" style="rhombus;whiteSpace=wrap;html=1;" vertex="1" parent="1">
          <mxGeometry x="560" y="220" width="80" height="80" as="geometry" />
        </mxCell>
        <mxCell id="ZjOZpIO9wMrcneZdlFCF-9" value="" style="shape=link;html=1;" edge="1" parent="1" target="ZjOZpIO9wMrcneZdlFCF-10">
          <mxGeometry width="100" relative="1" as="geometry">
            <mxPoint x="640" y="259.5" as="sourcePoint" />
            <mxPoint x="740" y="259.5" as="targetPoint" />
          </mxGeometry>
        </mxCell>
        <mxCell id="ZjOZpIO9wMrcneZdlFCF-54" style="edgeStyle=orthogonalEdgeStyle;rounded=0;orthogonalLoop=1;jettySize=auto;html=1;exitX=1;exitY=0.5;exitDx=0;exitDy=0;entryX=0;entryY=0.5;entryDx=0;entryDy=0;" edge="1" parent="1" source="ZjOZpIO9wMrcneZdlFCF-10" target="ZjOZpIO9wMrcneZdlFCF-16">
          <mxGeometry relative="1" as="geometry" />
        </mxCell>
        <mxCell id="ZjOZpIO9wMrcneZdlFCF-55" style="edgeStyle=orthogonalEdgeStyle;rounded=0;orthogonalLoop=1;jettySize=auto;html=1;exitX=1;exitY=0.5;exitDx=0;exitDy=0;entryX=0;entryY=0.5;entryDx=0;entryDy=0;" edge="1" parent="1" source="ZjOZpIO9wMrcneZdlFCF-10" target="ZjOZpIO9wMrcneZdlFCF-17">
          <mxGeometry relative="1" as="geometry" />
        </mxCell>
        <mxCell id="ZjOZpIO9wMrcneZdlFCF-56" style="edgeStyle=orthogonalEdgeStyle;rounded=0;orthogonalLoop=1;jettySize=auto;html=1;exitX=1;exitY=0.5;exitDx=0;exitDy=0;entryX=0;entryY=0.5;entryDx=0;entryDy=0;" edge="1" parent="1" source="ZjOZpIO9wMrcneZdlFCF-10" target="ZjOZpIO9wMrcneZdlFCF-18">
          <mxGeometry relative="1" as="geometry" />
        </mxCell>
        <mxCell id="ZjOZpIO9wMrcneZdlFCF-57" style="edgeStyle=orthogonalEdgeStyle;rounded=0;orthogonalLoop=1;jettySize=auto;html=1;exitX=1;exitY=0.5;exitDx=0;exitDy=0;entryX=0;entryY=0.5;entryDx=0;entryDy=0;" edge="1" parent="1" source="ZjOZpIO9wMrcneZdlFCF-10" target="ZjOZpIO9wMrcneZdlFCF-19">
          <mxGeometry relative="1" as="geometry" />
        </mxCell>
        <mxCell id="ZjOZpIO9wMrcneZdlFCF-58" style="edgeStyle=orthogonalEdgeStyle;rounded=0;orthogonalLoop=1;jettySize=auto;html=1;exitX=1;exitY=0.5;exitDx=0;exitDy=0;entryX=0;entryY=0.5;entryDx=0;entryDy=0;" edge="1" parent="1" source="ZjOZpIO9wMrcneZdlFCF-10" target="ZjOZpIO9wMrcneZdlFCF-22">
          <mxGeometry relative="1" as="geometry" />
        </mxCell>
        <mxCell id="ZjOZpIO9wMrcneZdlFCF-10" value="묻고 답하기" style="rounded=0;whiteSpace=wrap;html=1;" vertex="1" parent="1">
          <mxGeometry x="710" y="240" width="90" height="40" as="geometry" />
        </mxCell>
        <mxCell id="ZjOZpIO9wMrcneZdlFCF-16" value="&lt;u&gt;질문번호&lt;/u&gt;" style="ellipse;whiteSpace=wrap;html=1;" vertex="1" parent="1">
          <mxGeometry x="920" y="140" width="80" height="40" as="geometry" />
        </mxCell>
        <mxCell id="ZjOZpIO9wMrcneZdlFCF-17" value="답변상태" style="ellipse;whiteSpace=wrap;html=1;" vertex="1" parent="1">
          <mxGeometry x="920" y="190" width="80" height="40" as="geometry" />
        </mxCell>
        <mxCell id="ZjOZpIO9wMrcneZdlFCF-18" value="제목" style="ellipse;whiteSpace=wrap;html=1;" vertex="1" parent="1">
          <mxGeometry x="920" y="240" width="80" height="40" as="geometry" />
        </mxCell>
        <mxCell id="ZjOZpIO9wMrcneZdlFCF-19" value="작성자" style="ellipse;whiteSpace=wrap;html=1;" vertex="1" parent="1">
          <mxGeometry x="920" y="290" width="80" height="40" as="geometry" />
        </mxCell>
        <mxCell id="ZjOZpIO9wMrcneZdlFCF-22" value="작성일자" style="ellipse;whiteSpace=wrap;html=1;" vertex="1" parent="1">
          <mxGeometry x="920" y="340" width="80" height="40" as="geometry" />
        </mxCell>
        <mxCell id="ZjOZpIO9wMrcneZdlFCF-23" value="n" style="text;html=1;align=center;verticalAlign=middle;resizable=0;points=[];autosize=1;strokeColor=none;" vertex="1" parent="1">
          <mxGeometry x="650" y="240" width="20" height="20" as="geometry" />
        </mxCell>
        <mxCell id="ZjOZpIO9wMrcneZdlFCF-24" value="1" style="text;html=1;align=center;verticalAlign=middle;resizable=0;points=[];autosize=1;strokeColor=none;" vertex="1" parent="1">
          <mxGeometry x="500" y="240" width="20" height="20" as="geometry" />
        </mxCell>
        <mxCell id="ZjOZpIO9wMrcneZdlFCF-72" style="edgeStyle=orthogonalEdgeStyle;rounded=0;orthogonalLoop=1;jettySize=auto;html=1;exitX=0;exitY=0.5;exitDx=0;exitDy=0;entryX=1;entryY=0.5;entryDx=0;entryDy=0;" edge="1" parent="1" source="ZjOZpIO9wMrcneZdlFCF-30" target="ZjOZpIO9wMrcneZdlFCF-40">
          <mxGeometry relative="1" as="geometry" />
        </mxCell>
        <mxCell id="ZjOZpIO9wMrcneZdlFCF-73" style="edgeStyle=orthogonalEdgeStyle;rounded=0;orthogonalLoop=1;jettySize=auto;html=1;exitX=0;exitY=0.5;exitDx=0;exitDy=0;entryX=1;entryY=0.5;entryDx=0;entryDy=0;" edge="1" parent="1" source="ZjOZpIO9wMrcneZdlFCF-30" target="ZjOZpIO9wMrcneZdlFCF-38">
          <mxGeometry relative="1" as="geometry" />
        </mxCell>
        <mxCell id="ZjOZpIO9wMrcneZdlFCF-74" style="edgeStyle=orthogonalEdgeStyle;rounded=0;orthogonalLoop=1;jettySize=auto;html=1;exitX=0;exitY=0.5;exitDx=0;exitDy=0;entryX=1;entryY=0.5;entryDx=0;entryDy=0;" edge="1" parent="1" source="ZjOZpIO9wMrcneZdlFCF-30" target="ZjOZpIO9wMrcneZdlFCF-36">
          <mxGeometry relative="1" as="geometry" />
        </mxCell>
        <mxCell id="ZjOZpIO9wMrcneZdlFCF-75" style="edgeStyle=orthogonalEdgeStyle;rounded=0;orthogonalLoop=1;jettySize=auto;html=1;exitX=0;exitY=0.5;exitDx=0;exitDy=0;entryX=1;entryY=0.5;entryDx=0;entryDy=0;" edge="1" parent="1" source="ZjOZpIO9wMrcneZdlFCF-30" target="ZjOZpIO9wMrcneZdlFCF-35">
          <mxGeometry relative="1" as="geometry" />
        </mxCell>
        <mxCell id="ZjOZpIO9wMrcneZdlFCF-30" value="주문" style="rhombus;whiteSpace=wrap;html=1;" vertex="1" parent="1">
          <mxGeometry x="240" y="220" width="80" height="80" as="geometry" />
        </mxCell>
        <mxCell id="ZjOZpIO9wMrcneZdlFCF-35" value="주문일자" style="ellipse;whiteSpace=wrap;html=1;" vertex="1" parent="1">
          <mxGeometry x="80" y="330" width="80" height="40" as="geometry" />
        </mxCell>
        <mxCell id="ZjOZpIO9wMrcneZdlFCF-36" value="배송지" style="ellipse;whiteSpace=wrap;html=1;" vertex="1" parent="1">
          <mxGeometry x="80" y="280" width="80" height="40" as="geometry" />
        </mxCell>
        <mxCell id="ZjOZpIO9wMrcneZdlFCF-38" value="주문수량" style="ellipse;whiteSpace=wrap;html=1;" vertex="1" parent="1">
          <mxGeometry x="80" y="230" width="80" height="40" as="geometry" />
        </mxCell>
        <mxCell id="ZjOZpIO9wMrcneZdlFCF-40" value="주문번호" style="ellipse;whiteSpace=wrap;html=1;" vertex="1" parent="1">
          <mxGeometry x="80" y="180" width="80" height="40" as="geometry" />
        </mxCell>
        <mxCell id="ZjOZpIO9wMrcneZdlFCF-45" value="삼대측정" style="ellipse;whiteSpace=wrap;html=1;" vertex="1" parent="1">
          <mxGeometry x="540" y="120" width="80" height="40" as="geometry" />
        </mxCell>
        <mxCell id="ZjOZpIO9wMrcneZdlFCF-46" value="나이" style="ellipse;whiteSpace=wrap;html=1;" vertex="1" parent="1">
          <mxGeometry x="454" y="120" width="80" height="40" as="geometry" />
        </mxCell>
        <mxCell id="ZjOZpIO9wMrcneZdlFCF-47" value="이름" style="ellipse;whiteSpace=wrap;html=1;" vertex="1" parent="1">
          <mxGeometry x="360" y="120" width="84" height="40" as="geometry" />
        </mxCell>
        <mxCell id="ZjOZpIO9wMrcneZdlFCF-48" value="비번" style="ellipse;whiteSpace=wrap;html=1;" vertex="1" parent="1">
          <mxGeometry x="270" y="120" width="80" height="40" as="geometry" />
        </mxCell>
        <mxCell id="ZjOZpIO9wMrcneZdlFCF-65" value="vip등급" style="ellipse;whiteSpace=wrap;html=1;" vertex="1" parent="1">
          <mxGeometry x="630" y="120" width="80" height="40" as="geometry" />
        </mxCell>
        <mxCell id="ZjOZpIO9wMrcneZdlFCF-67" value="&lt;u&gt;회원아이디&lt;/u&gt;" style="ellipse;whiteSpace=wrap;html=1;" vertex="1" parent="1">
          <mxGeometry x="180" y="120" width="80" height="40" as="geometry" />
        </mxCell>
        <mxCell id="ZjOZpIO9wMrcneZdlFCF-76" style="edgeStyle=orthogonalEdgeStyle;rounded=0;orthogonalLoop=1;jettySize=auto;html=1;exitX=0.5;exitY=0;exitDx=0;exitDy=0;entryX=0.5;entryY=0;entryDx=0;entryDy=0;" edge="1" parent="1" source="ZjOZpIO9wMrcneZdlFCF-69" target="ZjOZpIO9wMrcneZdlFCF-69">
          <mxGeometry relative="1" as="geometry" />
        </mxCell>
        <mxCell id="ZjOZpIO9wMrcneZdlFCF-87" style="edgeStyle=orthogonalEdgeStyle;rounded=0;orthogonalLoop=1;jettySize=auto;html=1;exitX=0;exitY=0.5;exitDx=0;exitDy=0;entryX=1.013;entryY=0.648;entryDx=0;entryDy=0;entryPerimeter=0;" edge="1" parent="1" source="ZjOZpIO9wMrcneZdlFCF-69" target="ZjOZpIO9wMrcneZdlFCF-83">
          <mxGeometry relative="1" as="geometry" />
        </mxCell>
        <mxCell id="ZjOZpIO9wMrcneZdlFCF-88" style="edgeStyle=orthogonalEdgeStyle;rounded=0;orthogonalLoop=1;jettySize=auto;html=1;exitX=0;exitY=0.5;exitDx=0;exitDy=0;entryX=1;entryY=0.5;entryDx=0;entryDy=0;" edge="1" parent="1" source="ZjOZpIO9wMrcneZdlFCF-69" target="ZjOZpIO9wMrcneZdlFCF-84">
          <mxGeometry relative="1" as="geometry" />
        </mxCell>
        <mxCell id="ZjOZpIO9wMrcneZdlFCF-89" style="edgeStyle=orthogonalEdgeStyle;rounded=0;orthogonalLoop=1;jettySize=auto;html=1;exitX=0;exitY=0.5;exitDx=0;exitDy=0;entryX=1;entryY=0.5;entryDx=0;entryDy=0;" edge="1" parent="1" source="ZjOZpIO9wMrcneZdlFCF-69" target="ZjOZpIO9wMrcneZdlFCF-85">
          <mxGeometry relative="1" as="geometry" />
        </mxCell>
        <mxCell id="ZjOZpIO9wMrcneZdlFCF-90" style="edgeStyle=orthogonalEdgeStyle;rounded=0;orthogonalLoop=1;jettySize=auto;html=1;exitX=0;exitY=0.5;exitDx=0;exitDy=0;entryX=1;entryY=0.5;entryDx=0;entryDy=0;" edge="1" parent="1" source="ZjOZpIO9wMrcneZdlFCF-69" target="ZjOZpIO9wMrcneZdlFCF-86">
          <mxGeometry relative="1" as="geometry" />
        </mxCell>
        <mxCell id="ZjOZpIO9wMrcneZdlFCF-69" value="상품" style="rounded=0;whiteSpace=wrap;html=1;" vertex="1" parent="1">
          <mxGeometry x="240" y="450" width="80" height="40" as="geometry" />
        </mxCell>
        <mxCell id="ZjOZpIO9wMrcneZdlFCF-80" value="" style="endArrow=none;html=1;exitX=1;exitY=0.5;exitDx=0;exitDy=0;" edge="1" parent="1" source="ZjOZpIO9wMrcneZdlFCF-1">
          <mxGeometry width="50" height="50" relative="1" as="geometry">
            <mxPoint x="510" y="310" as="sourcePoint" />
            <mxPoint x="560" y="260" as="targetPoint" />
          </mxGeometry>
        </mxCell>
        <mxCell id="ZjOZpIO9wMrcneZdlFCF-81" value="" style="endArrow=none;html=1;entryX=0;entryY=0.5;entryDx=0;entryDy=0;" edge="1" parent="1" target="ZjOZpIO9wMrcneZdlFCF-1">
          <mxGeometry width="50" height="50" relative="1" as="geometry">
            <mxPoint x="320" y="260" as="sourcePoint" />
            <mxPoint x="370" y="210" as="targetPoint" />
          </mxGeometry>
        </mxCell>
        <mxCell id="ZjOZpIO9wMrcneZdlFCF-82" value="" style="endArrow=none;html=1;entryX=0.5;entryY=0;entryDx=0;entryDy=0;" edge="1" parent="1" target="ZjOZpIO9wMrcneZdlFCF-69">
          <mxGeometry width="50" height="50" relative="1" as="geometry">
            <mxPoint x="280" y="300" as="sourcePoint" />
            <mxPoint x="330" y="250" as="targetPoint" />
          </mxGeometry>
        </mxCell>
        <mxCell id="ZjOZpIO9wMrcneZdlFCF-83" value="&lt;u&gt;상품번호&lt;/u&gt;" style="ellipse;whiteSpace=wrap;html=1;" vertex="1" parent="1">
          <mxGeometry x="80" y="400" width="80" height="40" as="geometry" />
        </mxCell>
        <mxCell id="ZjOZpIO9wMrcneZdlFCF-84" value="상품명" style="ellipse;whiteSpace=wrap;html=1;" vertex="1" parent="1">
          <mxGeometry x="80" y="450" width="80" height="40" as="geometry" />
        </mxCell>
        <mxCell id="ZjOZpIO9wMrcneZdlFCF-85" value="상품수량" style="ellipse;whiteSpace=wrap;html=1;" vertex="1" parent="1">
          <mxGeometry x="80" y="505" width="80" height="45" as="geometry" />
        </mxCell>
        <mxCell id="ZjOZpIO9wMrcneZdlFCF-86" value="상품단가" style="ellipse;whiteSpace=wrap;html=1;" vertex="1" parent="1">
          <mxGeometry x="80" y="560" width="80" height="40" as="geometry" />
        </mxCell>
        <mxCell id="ZjOZpIO9wMrcneZdlFCF-91" value="" style="shape=link;html=1;" edge="1" parent="1" target="ZjOZpIO9wMrcneZdlFCF-92">
          <mxGeometry width="100" relative="1" as="geometry">
            <mxPoint x="320" y="469.66" as="sourcePoint" />
            <mxPoint x="420" y="469.66" as="targetPoint" />
          </mxGeometry>
        </mxCell>
        <mxCell id="ZjOZpIO9wMrcneZdlFCF-109" style="edgeStyle=orthogonalEdgeStyle;rounded=0;orthogonalLoop=1;jettySize=auto;html=1;exitX=0.5;exitY=1;exitDx=0;exitDy=0;" edge="1" parent="1" source="ZjOZpIO9wMrcneZdlFCF-92" target="ZjOZpIO9wMrcneZdlFCF-106">
          <mxGeometry relative="1" as="geometry" />
        </mxCell>
        <mxCell id="ZjOZpIO9wMrcneZdlFCF-110" style="edgeStyle=orthogonalEdgeStyle;rounded=0;orthogonalLoop=1;jettySize=auto;html=1;exitX=0.5;exitY=1;exitDx=0;exitDy=0;entryX=0.5;entryY=0;entryDx=0;entryDy=0;" edge="1" parent="1" source="ZjOZpIO9wMrcneZdlFCF-92" target="ZjOZpIO9wMrcneZdlFCF-107">
          <mxGeometry relative="1" as="geometry" />
        </mxCell>
        <mxCell id="ZjOZpIO9wMrcneZdlFCF-92" value="배송" style="rhombus;whiteSpace=wrap;html=1;" vertex="1" parent="1">
          <mxGeometry x="400" y="429.99999999999994" width="80" height="80" as="geometry" />
        </mxCell>
        <mxCell id="ZjOZpIO9wMrcneZdlFCF-101" style="edgeStyle=orthogonalEdgeStyle;rounded=0;orthogonalLoop=1;jettySize=auto;html=1;exitX=1;exitY=0.5;exitDx=0;exitDy=0;entryX=0;entryY=0.5;entryDx=0;entryDy=0;" edge="1" parent="1" source="ZjOZpIO9wMrcneZdlFCF-93" target="ZjOZpIO9wMrcneZdlFCF-97">
          <mxGeometry relative="1" as="geometry" />
        </mxCell>
        <mxCell id="ZjOZpIO9wMrcneZdlFCF-102" style="edgeStyle=orthogonalEdgeStyle;rounded=0;orthogonalLoop=1;jettySize=auto;html=1;exitX=1;exitY=0.5;exitDx=0;exitDy=0;entryX=0;entryY=0.5;entryDx=0;entryDy=0;" edge="1" parent="1" source="ZjOZpIO9wMrcneZdlFCF-93" target="ZjOZpIO9wMrcneZdlFCF-98">
          <mxGeometry relative="1" as="geometry" />
        </mxCell>
        <mxCell id="ZjOZpIO9wMrcneZdlFCF-103" style="edgeStyle=orthogonalEdgeStyle;rounded=0;orthogonalLoop=1;jettySize=auto;html=1;exitX=1;exitY=0.5;exitDx=0;exitDy=0;entryX=0;entryY=0.5;entryDx=0;entryDy=0;" edge="1" parent="1" source="ZjOZpIO9wMrcneZdlFCF-93" target="ZjOZpIO9wMrcneZdlFCF-99">
          <mxGeometry relative="1" as="geometry" />
        </mxCell>
        <mxCell id="ZjOZpIO9wMrcneZdlFCF-104" style="edgeStyle=orthogonalEdgeStyle;rounded=0;orthogonalLoop=1;jettySize=auto;html=1;exitX=1;exitY=0.5;exitDx=0;exitDy=0;entryX=0;entryY=0.5;entryDx=0;entryDy=0;" edge="1" parent="1" source="ZjOZpIO9wMrcneZdlFCF-93" target="ZjOZpIO9wMrcneZdlFCF-100">
          <mxGeometry relative="1" as="geometry" />
        </mxCell>
        <mxCell id="ZjOZpIO9wMrcneZdlFCF-93" value="배송업체" style="rounded=0;whiteSpace=wrap;html=1;" vertex="1" parent="1">
          <mxGeometry x="560" y="450" width="86" height="45" as="geometry" />
        </mxCell>
        <mxCell id="ZjOZpIO9wMrcneZdlFCF-94" value="" style="endArrow=none;html=1;" edge="1" parent="1">
          <mxGeometry width="50" height="50" relative="1" as="geometry">
            <mxPoint x="480" y="470" as="sourcePoint" />
            <mxPoint x="560" y="470" as="targetPoint" />
          </mxGeometry>
        </mxCell>
        <mxCell id="ZjOZpIO9wMrcneZdlFCF-95" value="n" style="text;html=1;align=center;verticalAlign=middle;resizable=0;points=[];autosize=1;strokeColor=none;" vertex="1" parent="1">
          <mxGeometry x="350" y="450" width="20" height="20" as="geometry" />
        </mxCell>
        <mxCell id="ZjOZpIO9wMrcneZdlFCF-96" value="1" style="text;html=1;align=center;verticalAlign=middle;resizable=0;points=[];autosize=1;strokeColor=none;" vertex="1" parent="1">
          <mxGeometry x="510" y="450" width="20" height="20" as="geometry" />
        </mxCell>
        <mxCell id="ZjOZpIO9wMrcneZdlFCF-97" value="&lt;u&gt;배송업체명&lt;/u&gt;" style="ellipse;whiteSpace=wrap;html=1;" vertex="1" parent="1">
          <mxGeometry x="700" y="380" width="80" height="40" as="geometry" />
        </mxCell>
        <mxCell id="ZjOZpIO9wMrcneZdlFCF-98" value="전화번호" style="ellipse;whiteSpace=wrap;html=1;" vertex="1" parent="1">
          <mxGeometry x="700" y="430" width="80" height="40" as="geometry" />
        </mxCell>
        <mxCell id="ZjOZpIO9wMrcneZdlFCF-99" value="배송위치" style="ellipse;whiteSpace=wrap;html=1;" vertex="1" parent="1">
          <mxGeometry x="700" y="480" width="80" height="40" as="geometry" />
        </mxCell>
        <mxCell id="ZjOZpIO9wMrcneZdlFCF-100" value="담당자번호" style="ellipse;whiteSpace=wrap;html=1;" vertex="1" parent="1">
          <mxGeometry x="700" y="530" width="80" height="40" as="geometry" />
        </mxCell>
        <mxCell id="ZjOZpIO9wMrcneZdlFCF-106" value="배송일자" style="ellipse;whiteSpace=wrap;html=1;" vertex="1" parent="1">
          <mxGeometry x="350" y="545" width="80" height="40" as="geometry" />
        </mxCell>
        <mxCell id="ZjOZpIO9wMrcneZdlFCF-107" value="배송정보" style="ellipse;whiteSpace=wrap;html=1;" vertex="1" parent="1">
          <mxGeometry x="450" y="540" width="80" height="40" as="geometry" />
        </mxCell>
        <mxCell id="ZjOZpIO9wMrcneZdlFCF-111" value="n" style="text;html=1;align=center;verticalAlign=middle;resizable=0;points=[];autosize=1;strokeColor=none;" vertex="1" parent="1">
          <mxGeometry x="290" y="350" width="20" height="20" as="geometry" />
        </mxCell>
        <mxCell id="ZjOZpIO9wMrcneZdlFCF-113" value="m" style="text;html=1;align=center;verticalAlign=middle;resizable=0;points=[];autosize=1;strokeColor=none;" vertex="1" parent="1">
          <mxGeometry x="345" y="230" width="30" height="20" as="geometry" />
        </mxCell>
      </root>
    </mxGraphModel>
  </diagram>
</mxfile>
